<?xml version="1.0" encoding="UTF-8"?>
<svg width="95px" height="74px" viewBox="0 0 95 74" version="1.1" xmlns="http://www.w3.org/2000/svg" xmlns:xlink="http://www.w3.org/1999/xlink">
    <!-- Generator: Sketch 48.2 (47327) - http://www.bohemiancoding.com/sketch -->
    <title>crown_white</title>
    <desc>Created with Sketch.</desc>
    <defs></defs>
    <g id="Page-1" stroke="none" stroke-width="1" fill="none" fill-rule="evenodd">
        <g id="crown_white" fill="#FFFFFF" fill-rule="nonzero">
            <g id="crown">
                <path d="M84.762,31.232 C79.842,34.761 72.936,39.454 69.821,39.454 C69.204,39.454 69.006,39.268 68.862,39.093 C67.59,37.525 67.934,32.027 69.887,22.758 C70.08,21.84 69.596,20.917 68.735,20.554 C67.874,20.189 66.874,20.488 66.352,21.264 C59.631,31.285 56.553,33.387 55.158,33.387 C53.179,33.387 51.168,27.695 49.172,16.467 C49.013,15.571 48.257,14.918 47.359,14.866 L47.359,14.855 C47.34,14.855 47.322,14.859 47.303,14.859 C47.284,14.859 47.263,14.855 47.245,14.855 L47.245,14.866 C46.35,14.918 45.596,15.571 45.434,16.467 C43.436,27.695 41.423,33.387 39.446,33.387 C38.05,33.387 34.974,31.284 28.254,21.264 C27.733,20.488 26.733,20.189 25.87,20.554 C25.008,20.917 24.524,21.84 24.718,22.758 C26.67,32.027 27.017,37.525 25.742,39.093 C25.601,39.269 25.4,39.454 24.784,39.454 C21.669,39.454 14.763,34.762 9.841,31.232 C9.063,30.673 7.996,30.764 7.321,31.441 C6.645,32.115 6.556,33.182 7.114,33.961 C18.367,48.353 16.249,64.871 16.249,64.871 C16.208,65.1 16.186,65.334 16.186,65.58 C16.186,69.638 21.868,71.244 26.817,72.19 C32.27,73.235 39.452,73.817 47.083,73.837 L47.083,73.839 C47.156,73.839 47.23,73.839 47.303,73.837 C47.376,73.839 47.449,73.839 47.524,73.839 L47.524,73.837 C55.153,73.816 62.336,73.234 67.787,72.19 C72.737,71.244 78.42,69.635 78.42,65.58 C78.42,65.334 78.398,65.101 78.357,64.871 C78.357,64.871 76.24,48.35 87.491,33.961 C88.05,33.183 87.962,32.115 87.286,31.441 C86.607,30.766 85.542,30.674 84.762,31.232 Z M47.522,68.238 L47.507,68.238 C47.437,68.238 47.37,68.241 47.301,68.241 C47.231,68.241 47.166,68.238 47.096,68.238 L47.081,68.238 C34.954,68.203 26.937,66.792 23.399,65.581 C26.937,64.368 34.954,62.957 47.081,62.923 L47.11,62.923 C47.173,62.923 47.236,62.923 47.3,62.923 C47.364,62.923 47.424,62.923 47.49,62.923 L47.52,62.923 C59.646,62.957 67.662,64.368 71.201,65.581 C67.664,66.792 59.648,68.203 47.522,68.238 Z" id="Shape"></path>
                <circle id="Oval" cx="47.302" cy="6.573" r="5.914"></circle>
                <circle id="Oval" cx="22.339" cy="13.718" r="4.928"></circle>
                <circle id="Oval" cx="71.855" cy="13.718" r="4.928"></circle>
                <circle id="Oval" cx="3.322" cy="27.759" r="3.322"></circle>
                <circle id="Oval" cx="91.178" cy="27.759" r="3.322"></circle>
            </g>
        </g>
    </g>
</svg>